<svg xmlns="http://www.w3.org/2000/svg" width="1200" height="820" viewBox="0 0 1200 820" preserveAspectRatio="xMidYMid slice" role="img" aria-label="DECK AND FALSEWORK · ELEVATION">
  <defs>
    <linearGradient id="ground" x1="0" y1="0" x2="0.5" y2="1">
      <stop offset="0" stop-color="#f6f4ec"/><stop offset="0.6" stop-color="#eceee7"/><stop offset="1" stop-color="#dfe7e6"/>
    </linearGradient>
    <pattern id="grid" width="40" height="40" patternUnits="userSpaceOnUse">
      <path d="M40 0H0V40" fill="none" stroke="rgba(18,54,66,0.11)" stroke-width="1"/>
    </pattern>
    <pattern id="grid-fine" width="8" height="8" patternUnits="userSpaceOnUse">
      <path d="M8 0H0V8" fill="none" stroke="rgba(18,54,66,0.055)" stroke-width="0.6"/>
    </pattern>
    <linearGradient id="wash" x1="0" y1="0" x2="0" y2="1">
      <stop offset="0" stop-color="#0f6d84" stop-opacity="0.34"/><stop offset="1" stop-color="#0f6d84" stop-opacity="0.06"/>
    </linearGradient>
  </defs>
  <rect width="1200" height="820" fill="url(#ground)"/>
  <rect width="1200" height="820" fill="url(#grid-fine)"/>
  <rect width="1200" height="820" fill="url(#grid)"/>
  <rect x="14" y="14" width="1172" height="792" fill="none" stroke="rgba(18,54,66,0.34)" stroke-width="1.4"/>
  <text x="34" y="46" fill="#0f6d84" font-family="'IBM Plex Mono',monospace" font-size="13" letter-spacing="3">L-22</text>
  <text x="1166" y="46" text-anchor="end" fill="rgba(18,54,66,0.45)" font-family="'IBM Plex Mono',monospace" font-size="12" letter-spacing="2">SCALE 1:100</text>
  <path d="M60 344.4H1140" fill="none" stroke="#123642" stroke-width="3" opacity="1"/>
  <path d="M60 364.4H1140" fill="none" stroke="#123642" stroke-width="1.6" opacity="0.6"/>
  <path d="M74 672.4V404.4Q150 334.4 226 404.4V672.4" fill="none" stroke="#123642" stroke-width="2" opacity="1"/>
  <path d="M150 364.4V408.4" fill="none" stroke="#123642" stroke-width="1.2" opacity="0.45"/>
  <path d="M254 672.4V404.4Q330 334.4 406 404.4V672.4" fill="none" stroke="#123642" stroke-width="2" opacity="1"/>
  <path d="M330 364.4V408.4" fill="none" stroke="#123642" stroke-width="1.2" opacity="0.45"/>
  <path d="M434 672.4V404.4Q510 334.4 586 404.4V672.4" fill="none" stroke="#123642" stroke-width="2" opacity="1"/>
  <path d="M510 364.4V408.4" fill="none" stroke="#123642" stroke-width="1.2" opacity="0.45"/>
  <path d="M614 672.4V404.4Q690 334.4 766 404.4V672.4" fill="none" stroke="#123642" stroke-width="2" opacity="1"/>
  <path d="M690 364.4V408.4" fill="none" stroke="#123642" stroke-width="1.2" opacity="0.45"/>
  <path d="M794 672.4V404.4Q870 334.4 946 404.4V672.4" fill="none" stroke="#123642" stroke-width="2" opacity="1"/>
  <path d="M870 364.4V408.4" fill="none" stroke="#123642" stroke-width="1.2" opacity="0.45"/>
  <path d="M974 672.4V404.4Q1050 334.4 1126 404.4V672.4" fill="none" stroke="#123642" stroke-width="2" opacity="1"/>
  <path d="M1050 364.4V408.4" fill="none" stroke="#123642" stroke-width="1.2" opacity="0.45"/>
  <path d="M60 338.4H1140" fill="none" stroke="#f2a900" stroke-width="3" stroke-linecap="round"/>
  <line x1="0" y1="672.4" x2="1200" y2="672.4" stroke="#123642" stroke-width="2" opacity="0.8"/>
  <line x1="-60" y1="732.4" x2="0" y2="672.4" stroke="rgba(18,54,66,0.34)" stroke-width="1"/>
  <line x1="-34" y1="732.4" x2="26" y2="672.4" stroke="rgba(18,54,66,0.34)" stroke-width="1"/>
  <line x1="-8" y1="732.4" x2="52" y2="672.4" stroke="rgba(18,54,66,0.34)" stroke-width="1"/>
  <line x1="18" y1="732.4" x2="78" y2="672.4" stroke="rgba(18,54,66,0.34)" stroke-width="1"/>
  <line x1="44" y1="732.4" x2="104" y2="672.4" stroke="rgba(18,54,66,0.34)" stroke-width="1"/>
  <line x1="70" y1="732.4" x2="130" y2="672.4" stroke="rgba(18,54,66,0.34)" stroke-width="1"/>
  <line x1="96" y1="732.4" x2="156" y2="672.4" stroke="rgba(18,54,66,0.34)" stroke-width="1"/>
  <line x1="122" y1="732.4" x2="182" y2="672.4" stroke="rgba(18,54,66,0.34)" stroke-width="1"/>
  <line x1="148" y1="732.4" x2="208" y2="672.4" stroke="rgba(18,54,66,0.34)" stroke-width="1"/>
  <line x1="174" y1="732.4" x2="234" y2="672.4" stroke="rgba(18,54,66,0.34)" stroke-width="1"/>
  <line x1="200" y1="732.4" x2="260" y2="672.4" stroke="rgba(18,54,66,0.34)" stroke-width="1"/>
  <line x1="226" y1="732.4" x2="286" y2="672.4" stroke="rgba(18,54,66,0.34)" stroke-width="1"/>
  <line x1="252" y1="732.4" x2="312" y2="672.4" stroke="rgba(18,54,66,0.34)" stroke-width="1"/>
  <line x1="278" y1="732.4" x2="338" y2="672.4" stroke="rgba(18,54,66,0.34)" stroke-width="1"/>
  <line x1="304" y1="732.4" x2="364" y2="672.4" stroke="rgba(18,54,66,0.34)" stroke-width="1"/>
  <line x1="330" y1="732.4" x2="390" y2="672.4" stroke="rgba(18,54,66,0.34)" stroke-width="1"/>
  <line x1="356" y1="732.4" x2="416" y2="672.4" stroke="rgba(18,54,66,0.34)" stroke-width="1"/>
  <line x1="382" y1="732.4" x2="442" y2="672.4" stroke="rgba(18,54,66,0.34)" stroke-width="1"/>
  <line x1="408" y1="732.4" x2="468" y2="672.4" stroke="rgba(18,54,66,0.34)" stroke-width="1"/>
  <line x1="434" y1="732.4" x2="494" y2="672.4" stroke="rgba(18,54,66,0.34)" stroke-width="1"/>
  <line x1="460" y1="732.4" x2="520" y2="672.4" stroke="rgba(18,54,66,0.34)" stroke-width="1"/>
  <line x1="486" y1="732.4" x2="546" y2="672.4" stroke="rgba(18,54,66,0.34)" stroke-width="1"/>
  <line x1="512" y1="732.4" x2="572" y2="672.4" stroke="rgba(18,54,66,0.34)" stroke-width="1"/>
  <line x1="538" y1="732.4" x2="598" y2="672.4" stroke="rgba(18,54,66,0.34)" stroke-width="1"/>
  <line x1="564" y1="732.4" x2="624" y2="672.4" stroke="rgba(18,54,66,0.34)" stroke-width="1"/>
  <line x1="590" y1="732.4" x2="650" y2="672.4" stroke="rgba(18,54,66,0.34)" stroke-width="1"/>
  <line x1="616" y1="732.4" x2="676" y2="672.4" stroke="rgba(18,54,66,0.34)" stroke-width="1"/>
  <line x1="642" y1="732.4" x2="702" y2="672.4" stroke="rgba(18,54,66,0.34)" stroke-width="1"/>
  <line x1="668" y1="732.4" x2="728" y2="672.4" stroke="rgba(18,54,66,0.34)" stroke-width="1"/>
  <line x1="694" y1="732.4" x2="754" y2="672.4" stroke="rgba(18,54,66,0.34)" stroke-width="1"/>
  <line x1="720" y1="732.4" x2="780" y2="672.4" stroke="rgba(18,54,66,0.34)" stroke-width="1"/>
  <line x1="746" y1="732.4" x2="806" y2="672.4" stroke="rgba(18,54,66,0.34)" stroke-width="1"/>
  <line x1="772" y1="732.4" x2="832" y2="672.4" stroke="rgba(18,54,66,0.34)" stroke-width="1"/>
  <line x1="798" y1="732.4" x2="858" y2="672.4" stroke="rgba(18,54,66,0.34)" stroke-width="1"/>
  <line x1="824" y1="732.4" x2="884" y2="672.4" stroke="rgba(18,54,66,0.34)" stroke-width="1"/>
  <line x1="850" y1="732.4" x2="910" y2="672.4" stroke="rgba(18,54,66,0.34)" stroke-width="1"/>
  <line x1="876" y1="732.4" x2="936" y2="672.4" stroke="rgba(18,54,66,0.34)" stroke-width="1"/>
  <line x1="902" y1="732.4" x2="962" y2="672.4" stroke="rgba(18,54,66,0.34)" stroke-width="1"/>
  <line x1="928" y1="732.4" x2="988" y2="672.4" stroke="rgba(18,54,66,0.34)" stroke-width="1"/>
  <line x1="954" y1="732.4" x2="1014" y2="672.4" stroke="rgba(18,54,66,0.34)" stroke-width="1"/>
  <line x1="980" y1="732.4" x2="1040" y2="672.4" stroke="rgba(18,54,66,0.34)" stroke-width="1"/>
  <line x1="1006" y1="732.4" x2="1066" y2="672.4" stroke="rgba(18,54,66,0.34)" stroke-width="1"/>
  <line x1="1032" y1="732.4" x2="1092" y2="672.4" stroke="rgba(18,54,66,0.34)" stroke-width="1"/>
  <line x1="1058" y1="732.4" x2="1118" y2="672.4" stroke="rgba(18,54,66,0.34)" stroke-width="1"/>
  <line x1="1084" y1="732.4" x2="1144" y2="672.4" stroke="rgba(18,54,66,0.34)" stroke-width="1"/>
  <line x1="1110" y1="732.4" x2="1170" y2="672.4" stroke="rgba(18,54,66,0.34)" stroke-width="1"/>
  <line x1="1136" y1="732.4" x2="1196" y2="672.4" stroke="rgba(18,54,66,0.34)" stroke-width="1"/>
  <line x1="1162" y1="732.4" x2="1222" y2="672.4" stroke="rgba(18,54,66,0.34)" stroke-width="1"/>
  <line x1="1188" y1="732.4" x2="1248" y2="672.4" stroke="rgba(18,54,66,0.34)" stroke-width="1"/>
  <line x1="60" y1="706.4" x2="1140" y2="706.4" stroke="#0f6d84" stroke-width="2"/>
  <line x1="60" y1="698.4" x2="60" y2="714.4" stroke="rgba(18,54,66,0.34)" stroke-width="1"/>
  <line x1="240" y1="698.4" x2="240" y2="714.4" stroke="rgba(18,54,66,0.34)" stroke-width="1"/>
  <line x1="420" y1="698.4" x2="420" y2="714.4" stroke="rgba(18,54,66,0.34)" stroke-width="1"/>
  <line x1="600" y1="698.4" x2="600" y2="714.4" stroke="rgba(18,54,66,0.34)" stroke-width="1"/>
  <line x1="780" y1="698.4" x2="780" y2="714.4" stroke="rgba(18,54,66,0.34)" stroke-width="1"/>
  <line x1="960" y1="698.4" x2="960" y2="714.4" stroke="rgba(18,54,66,0.34)" stroke-width="1"/>
  <line x1="1140" y1="698.4" x2="1140" y2="714.4" stroke="rgba(18,54,66,0.34)" stroke-width="1"/>
  <rect x="14" y="752" width="1172" height="54" fill="#f2a900"/>
  <rect x="14" y="752" width="1172" height="3" fill="#123642"/>
  <text x="34" y="785" fill="#123642" font-family="'IBM Plex Mono',monospace" font-size="15" letter-spacing="2.4" font-weight="500">DECK AND FALSEWORK · ELEVATION</text>
  <text x="1166" y="785" text-anchor="end" fill="#123642" font-family="'IBM Plex Mono',monospace" font-size="13" letter-spacing="3" opacity="0.72">MERIDIAN</text>
</svg>
