<svg xmlns="http://www.w3.org/2000/svg" width="1200" height="820" viewBox="0 0 1200 820" preserveAspectRatio="xMidYMid slice" role="img" aria-label="DECK POUR · LOAD CASE">
  <defs>
    <linearGradient id="ground" x1="0" y1="0" x2="0.5" y2="1">
      <stop offset="0" stop-color="#f6f4ec"/><stop offset="0.6" stop-color="#eceee7"/><stop offset="1" stop-color="#dfe7e6"/>
    </linearGradient>
    <pattern id="grid" width="40" height="40" patternUnits="userSpaceOnUse">
      <path d="M40 0H0V40" fill="none" stroke="rgba(18,54,66,0.11)" stroke-width="1"/>
    </pattern>
    <pattern id="grid-fine" width="8" height="8" patternUnits="userSpaceOnUse">
      <path d="M8 0H0V8" fill="none" stroke="rgba(18,54,66,0.055)" stroke-width="0.6"/>
    </pattern>
    <linearGradient id="wash" x1="0" y1="0" x2="0" y2="1">
      <stop offset="0" stop-color="#0f6d84" stop-opacity="0.34"/><stop offset="1" stop-color="#0f6d84" stop-opacity="0.06"/>
    </linearGradient>
  </defs>
  <rect width="1200" height="820" fill="url(#ground)"/>
  <rect width="1200" height="820" fill="url(#grid-fine)"/>
  <rect width="1200" height="820" fill="url(#grid)"/>
  <rect x="14" y="14" width="1172" height="792" fill="none" stroke="rgba(18,54,66,0.34)" stroke-width="1.4"/>
  <text x="34" y="46" fill="#0f6d84" font-family="'IBM Plex Mono',monospace" font-size="13" letter-spacing="3">L-06</text>
  <text x="1166" y="46" text-anchor="end" fill="rgba(18,54,66,0.45)" font-family="'IBM Plex Mono',monospace" font-size="12" letter-spacing="2">SCALE 1:100</text>
  <path d="M96 639.6H1104" fill="none" stroke="#123642" stroke-width="3" opacity="1"/>
  <path d="M96 164V278.8" fill="none" stroke="#0f6d84" stroke-width="2" stroke-linecap="round"/>
  <path d="M96 278.8l-6 -12h12Z" fill="none" stroke="#123642" stroke-width="1.4" opacity="0.8"/>
  <path d="M96 639.6V659.6" fill="none" stroke="#123642" stroke-width="1" opacity="0.3"/>
  <path d="M180 164V278.8" fill="none" stroke="#0f6d84" stroke-width="2" stroke-linecap="round"/>
  <path d="M180 278.8l-6 -12h12Z" fill="none" stroke="#123642" stroke-width="1.4" opacity="0.8"/>
  <path d="M180 639.6V680.8" fill="none" stroke="#123642" stroke-width="1" opacity="0.3"/>
  <path d="M264 164V278.8" fill="none" stroke="#0f6d84" stroke-width="2" stroke-linecap="round"/>
  <path d="M264 278.8l-6 -12h12Z" fill="none" stroke="#123642" stroke-width="1.4" opacity="0.8"/>
  <path d="M264 639.6V700.6" fill="none" stroke="#123642" stroke-width="1" opacity="0.3"/>
  <path d="M348 164V278.8" fill="none" stroke="#0f6d84" stroke-width="2" stroke-linecap="round"/>
  <path d="M348 278.8l-6 -12h12Z" fill="none" stroke="#123642" stroke-width="1.4" opacity="0.8"/>
  <path d="M348 639.6V717.6" fill="none" stroke="#123642" stroke-width="1" opacity="0.3"/>
  <path d="M432 164V278.8" fill="none" stroke="#0f6d84" stroke-width="2" stroke-linecap="round"/>
  <path d="M432 278.8l-6 -12h12Z" fill="none" stroke="#123642" stroke-width="1.4" opacity="0.8"/>
  <path d="M432 639.6V730.6" fill="none" stroke="#123642" stroke-width="1" opacity="0.3"/>
  <path d="M516 164V278.8" fill="none" stroke="#0f6d84" stroke-width="2" stroke-linecap="round"/>
  <path d="M516 278.8l-6 -12h12Z" fill="none" stroke="#123642" stroke-width="1.4" opacity="0.8"/>
  <path d="M516 639.6V738.8" fill="none" stroke="#123642" stroke-width="1" opacity="0.3"/>
  <path d="M600 164V278.8" fill="none" stroke="#0f6d84" stroke-width="2" stroke-linecap="round"/>
  <path d="M600 278.8l-6 -12h12Z" fill="none" stroke="#123642" stroke-width="1.4" opacity="0.8"/>
  <path d="M600 639.6V741.6" fill="none" stroke="#123642" stroke-width="1" opacity="0.3"/>
  <path d="M684 164V278.8" fill="none" stroke="#0f6d84" stroke-width="2" stroke-linecap="round"/>
  <path d="M684 278.8l-6 -12h12Z" fill="none" stroke="#123642" stroke-width="1.4" opacity="0.8"/>
  <path d="M684 639.6V738.8" fill="none" stroke="#123642" stroke-width="1" opacity="0.3"/>
  <path d="M768 164V278.8" fill="none" stroke="#0f6d84" stroke-width="2" stroke-linecap="round"/>
  <path d="M768 278.8l-6 -12h12Z" fill="none" stroke="#123642" stroke-width="1.4" opacity="0.8"/>
  <path d="M768 639.6V730.6" fill="none" stroke="#123642" stroke-width="1" opacity="0.3"/>
  <path d="M852 164V278.8" fill="none" stroke="#0f6d84" stroke-width="2" stroke-linecap="round"/>
  <path d="M852 278.8l-6 -12h12Z" fill="none" stroke="#123642" stroke-width="1.4" opacity="0.8"/>
  <path d="M852 639.6V717.6" fill="none" stroke="#123642" stroke-width="1" opacity="0.3"/>
  <path d="M936 164V278.8" fill="none" stroke="#0f6d84" stroke-width="2" stroke-linecap="round"/>
  <path d="M936 278.8l-6 -12h12Z" fill="none" stroke="#123642" stroke-width="1.4" opacity="0.8"/>
  <path d="M936 639.6V700.6" fill="none" stroke="#123642" stroke-width="1" opacity="0.3"/>
  <path d="M1020 164V278.8" fill="none" stroke="#0f6d84" stroke-width="2" stroke-linecap="round"/>
  <path d="M1020 278.8l-6 -12h12Z" fill="none" stroke="#123642" stroke-width="1.4" opacity="0.8"/>
  <path d="M1020 639.6V680.8" fill="none" stroke="#123642" stroke-width="1" opacity="0.3"/>
  <path d="M1104 164V278.8" fill="none" stroke="#0f6d84" stroke-width="2" stroke-linecap="round"/>
  <path d="M1104 278.8l-6 -12h12Z" fill="none" stroke="#123642" stroke-width="1.4" opacity="0.8"/>
  <path d="M1104 639.6V659.6" fill="none" stroke="#123642" stroke-width="1" opacity="0.3"/>
  <path d="M96 344.4Q600 508.4 1104 344.4" fill="none" stroke="#123642" stroke-width="2.4" opacity="1"/>
  <path d="M96 344.4Q600 459.2 1104 344.4" fill="none" stroke="#f2a900" stroke-width="2" stroke-linecap="round"/>
  <path d="M96 344.4Q600 508.4 1104 344.4L1104 639.6H96Z" fill="url(#wash)" opacity="0.35"/>
  <line x1="0" y1="639.6" x2="1200" y2="639.6" stroke="#123642" stroke-width="2" opacity="0.8"/>
  <line x1="-60" y1="699.6" x2="0" y2="639.6" stroke="rgba(18,54,66,0.34)" stroke-width="1"/>
  <line x1="-34" y1="699.6" x2="26" y2="639.6" stroke="rgba(18,54,66,0.34)" stroke-width="1"/>
  <line x1="-8" y1="699.6" x2="52" y2="639.6" stroke="rgba(18,54,66,0.34)" stroke-width="1"/>
  <line x1="18" y1="699.6" x2="78" y2="639.6" stroke="rgba(18,54,66,0.34)" stroke-width="1"/>
  <line x1="44" y1="699.6" x2="104" y2="639.6" stroke="rgba(18,54,66,0.34)" stroke-width="1"/>
  <line x1="70" y1="699.6" x2="130" y2="639.6" stroke="rgba(18,54,66,0.34)" stroke-width="1"/>
  <line x1="96" y1="699.6" x2="156" y2="639.6" stroke="rgba(18,54,66,0.34)" stroke-width="1"/>
  <line x1="122" y1="699.6" x2="182" y2="639.6" stroke="rgba(18,54,66,0.34)" stroke-width="1"/>
  <line x1="148" y1="699.6" x2="208" y2="639.6" stroke="rgba(18,54,66,0.34)" stroke-width="1"/>
  <line x1="174" y1="699.6" x2="234" y2="639.6" stroke="rgba(18,54,66,0.34)" stroke-width="1"/>
  <line x1="200" y1="699.6" x2="260" y2="639.6" stroke="rgba(18,54,66,0.34)" stroke-width="1"/>
  <line x1="226" y1="699.6" x2="286" y2="639.6" stroke="rgba(18,54,66,0.34)" stroke-width="1"/>
  <line x1="252" y1="699.6" x2="312" y2="639.6" stroke="rgba(18,54,66,0.34)" stroke-width="1"/>
  <line x1="278" y1="699.6" x2="338" y2="639.6" stroke="rgba(18,54,66,0.34)" stroke-width="1"/>
  <line x1="304" y1="699.6" x2="364" y2="639.6" stroke="rgba(18,54,66,0.34)" stroke-width="1"/>
  <line x1="330" y1="699.6" x2="390" y2="639.6" stroke="rgba(18,54,66,0.34)" stroke-width="1"/>
  <line x1="356" y1="699.6" x2="416" y2="639.6" stroke="rgba(18,54,66,0.34)" stroke-width="1"/>
  <line x1="382" y1="699.6" x2="442" y2="639.6" stroke="rgba(18,54,66,0.34)" stroke-width="1"/>
  <line x1="408" y1="699.6" x2="468" y2="639.6" stroke="rgba(18,54,66,0.34)" stroke-width="1"/>
  <line x1="434" y1="699.6" x2="494" y2="639.6" stroke="rgba(18,54,66,0.34)" stroke-width="1"/>
  <line x1="460" y1="699.6" x2="520" y2="639.6" stroke="rgba(18,54,66,0.34)" stroke-width="1"/>
  <line x1="486" y1="699.6" x2="546" y2="639.6" stroke="rgba(18,54,66,0.34)" stroke-width="1"/>
  <line x1="512" y1="699.6" x2="572" y2="639.6" stroke="rgba(18,54,66,0.34)" stroke-width="1"/>
  <line x1="538" y1="699.6" x2="598" y2="639.6" stroke="rgba(18,54,66,0.34)" stroke-width="1"/>
  <line x1="564" y1="699.6" x2="624" y2="639.6" stroke="rgba(18,54,66,0.34)" stroke-width="1"/>
  <line x1="590" y1="699.6" x2="650" y2="639.6" stroke="rgba(18,54,66,0.34)" stroke-width="1"/>
  <line x1="616" y1="699.6" x2="676" y2="639.6" stroke="rgba(18,54,66,0.34)" stroke-width="1"/>
  <line x1="642" y1="699.6" x2="702" y2="639.6" stroke="rgba(18,54,66,0.34)" stroke-width="1"/>
  <line x1="668" y1="699.6" x2="728" y2="639.6" stroke="rgba(18,54,66,0.34)" stroke-width="1"/>
  <line x1="694" y1="699.6" x2="754" y2="639.6" stroke="rgba(18,54,66,0.34)" stroke-width="1"/>
  <line x1="720" y1="699.6" x2="780" y2="639.6" stroke="rgba(18,54,66,0.34)" stroke-width="1"/>
  <line x1="746" y1="699.6" x2="806" y2="639.6" stroke="rgba(18,54,66,0.34)" stroke-width="1"/>
  <line x1="772" y1="699.6" x2="832" y2="639.6" stroke="rgba(18,54,66,0.34)" stroke-width="1"/>
  <line x1="798" y1="699.6" x2="858" y2="639.6" stroke="rgba(18,54,66,0.34)" stroke-width="1"/>
  <line x1="824" y1="699.6" x2="884" y2="639.6" stroke="rgba(18,54,66,0.34)" stroke-width="1"/>
  <line x1="850" y1="699.6" x2="910" y2="639.6" stroke="rgba(18,54,66,0.34)" stroke-width="1"/>
  <line x1="876" y1="699.6" x2="936" y2="639.6" stroke="rgba(18,54,66,0.34)" stroke-width="1"/>
  <line x1="902" y1="699.6" x2="962" y2="639.6" stroke="rgba(18,54,66,0.34)" stroke-width="1"/>
  <line x1="928" y1="699.6" x2="988" y2="639.6" stroke="rgba(18,54,66,0.34)" stroke-width="1"/>
  <line x1="954" y1="699.6" x2="1014" y2="639.6" stroke="rgba(18,54,66,0.34)" stroke-width="1"/>
  <line x1="980" y1="699.6" x2="1040" y2="639.6" stroke="rgba(18,54,66,0.34)" stroke-width="1"/>
  <line x1="1006" y1="699.6" x2="1066" y2="639.6" stroke="rgba(18,54,66,0.34)" stroke-width="1"/>
  <line x1="1032" y1="699.6" x2="1092" y2="639.6" stroke="rgba(18,54,66,0.34)" stroke-width="1"/>
  <line x1="1058" y1="699.6" x2="1118" y2="639.6" stroke="rgba(18,54,66,0.34)" stroke-width="1"/>
  <line x1="1084" y1="699.6" x2="1144" y2="639.6" stroke="rgba(18,54,66,0.34)" stroke-width="1"/>
  <line x1="1110" y1="699.6" x2="1170" y2="639.6" stroke="rgba(18,54,66,0.34)" stroke-width="1"/>
  <line x1="1136" y1="699.6" x2="1196" y2="639.6" stroke="rgba(18,54,66,0.34)" stroke-width="1"/>
  <line x1="1162" y1="699.6" x2="1222" y2="639.6" stroke="rgba(18,54,66,0.34)" stroke-width="1"/>
  <line x1="1188" y1="699.6" x2="1248" y2="639.6" stroke="rgba(18,54,66,0.34)" stroke-width="1"/>
  <line x1="96" y1="675.6" x2="1104" y2="675.6" stroke="#0f6d84" stroke-width="2"/>
  <line x1="96" y1="667.6" x2="96" y2="683.6" stroke="rgba(18,54,66,0.34)" stroke-width="1"/>
  <line x1="180" y1="667.6" x2="180" y2="683.6" stroke="rgba(18,54,66,0.34)" stroke-width="1"/>
  <line x1="264" y1="667.6" x2="264" y2="683.6" stroke="rgba(18,54,66,0.34)" stroke-width="1"/>
  <line x1="348" y1="667.6" x2="348" y2="683.6" stroke="rgba(18,54,66,0.34)" stroke-width="1"/>
  <line x1="432" y1="667.6" x2="432" y2="683.6" stroke="rgba(18,54,66,0.34)" stroke-width="1"/>
  <line x1="516" y1="667.6" x2="516" y2="683.6" stroke="rgba(18,54,66,0.34)" stroke-width="1"/>
  <line x1="600" y1="667.6" x2="600" y2="683.6" stroke="rgba(18,54,66,0.34)" stroke-width="1"/>
  <line x1="684" y1="667.6" x2="684" y2="683.6" stroke="rgba(18,54,66,0.34)" stroke-width="1"/>
  <line x1="768" y1="667.6" x2="768" y2="683.6" stroke="rgba(18,54,66,0.34)" stroke-width="1"/>
  <line x1="852" y1="667.6" x2="852" y2="683.6" stroke="rgba(18,54,66,0.34)" stroke-width="1"/>
  <line x1="936" y1="667.6" x2="936" y2="683.6" stroke="rgba(18,54,66,0.34)" stroke-width="1"/>
  <line x1="1020" y1="667.6" x2="1020" y2="683.6" stroke="rgba(18,54,66,0.34)" stroke-width="1"/>
  <line x1="1104" y1="667.6" x2="1104" y2="683.6" stroke="rgba(18,54,66,0.34)" stroke-width="1"/>
  <rect x="14" y="752" width="1172" height="54" fill="#f2a900"/>
  <rect x="14" y="752" width="1172" height="3" fill="#123642"/>
  <text x="34" y="785" fill="#123642" font-family="'IBM Plex Mono',monospace" font-size="15" letter-spacing="2.4" font-weight="500">DECK POUR · LOAD CASE</text>
  <text x="1166" y="785" text-anchor="end" fill="#123642" font-family="'IBM Plex Mono',monospace" font-size="13" letter-spacing="3" opacity="0.72">MERIDIAN</text>
</svg>
