<svg xmlns="http://www.w3.org/2000/svg" width="1200" height="820" viewBox="0 0 1200 820" preserveAspectRatio="xMidYMid slice" role="img" aria-label="DELTA REFINERY · GA">
  <defs>
    <linearGradient id="ground" x1="0" y1="0" x2="0.4" y2="1">
      <stop offset="0" stop-color="#0c1f2b"/><stop offset="0.55" stop-color="#081722"/><stop offset="1" stop-color="#050e15"/>
    </linearGradient>
    <pattern id="grid" width="40" height="40" patternUnits="userSpaceOnUse">
      <path d="M40 0H0V40" fill="none" stroke="rgba(231,237,239,0.12)" stroke-width="1"/>
    </pattern>
    <pattern id="grid-fine" width="8" height="8" patternUnits="userSpaceOnUse">
      <path d="M8 0H0V8" fill="none" stroke="rgba(231,237,239,0.05)" stroke-width="0.6"/>
    </pattern>
    <linearGradient id="wash" x1="0" y1="0" x2="0" y2="1">
      <stop offset="0" stop-color="#3f9cb4" stop-opacity="0.42"/><stop offset="1" stop-color="#3f9cb4" stop-opacity="0.04"/>
    </linearGradient>
  </defs>
  <rect width="1200" height="820" fill="url(#ground)"/>
  <rect width="1200" height="820" fill="url(#grid-fine)"/>
  <rect width="1200" height="820" fill="url(#grid)"/>
  <rect x="16" y="16" width="1168" height="788" fill="none" stroke="rgba(231,237,239,0.22)" stroke-width="1"/>
  <line x1="16" y1="758" x2="1184" y2="758" stroke="rgba(231,237,239,0.22)" stroke-width="1"/>
  <text x="34" y="790" fill="#e7edef" font-family="'IBM Plex Mono',monospace" font-size="16" letter-spacing="2.5" opacity="0.88">DELTA REFINERY · GA</text>
  <text x="1166" y="790" text-anchor="end" fill="#d9a441" font-family="'IBM Plex Mono',monospace" font-size="13" letter-spacing="2" opacity="0.9">MERIDIAN</text>
  <text x="34" y="46" fill="#3f9cb4" font-family="'IBM Plex Mono',monospace" font-size="13" letter-spacing="3">P-08</text>
  <text x="1166" y="46" text-anchor="end" fill="rgba(231,237,239,0.22)" font-family="'IBM Plex Mono',monospace" font-size="12" letter-spacing="2">SCALE 1:750</text>
  <rect x="144" y="406.5" width="65.6" height="265.9" fill="none" stroke="#e7edef" stroke-width="2"/>
  <path d="M128 446.5H234" fill="none" stroke="#e7edef" stroke-width="1.2" opacity="0.4"/>
  <rect x="360" y="261.7" width="77.7" height="410.7" fill="none" stroke="#e7edef" stroke-width="2"/>
  <path d="M344 301.7H450" fill="none" stroke="#e7edef" stroke-width="1.2" opacity="0.4"/>
  <rect x="576" y="216.9" width="63.8" height="455.5" fill="none" stroke="#e7edef" stroke-width="2"/>
  <path d="M560 256.9H666" fill="none" stroke="#e7edef" stroke-width="1.2" opacity="0.4"/>
  <rect x="792" y="350.5" width="67.5" height="321.9" fill="none" stroke="#e7edef" stroke-width="2"/>
  <path d="M776 390.5H882" fill="none" stroke="#e7edef" stroke-width="1.2" opacity="0.4"/>
  <path d="M1032 672.4V82" fill="none" stroke="#e7edef" stroke-width="3" opacity="1"/>
  <path d="M1032 82q18 -34 42 -18" fill="none" stroke="#d9a441" stroke-width="3" stroke-linecap="round"/>
  <path d="M1002 612.4L1032 213.2" fill="none" stroke="#e7edef" stroke-width="1.2" opacity="0.4"/>
  <path d="M1062 612.4L1032 213.2" fill="none" stroke="#e7edef" stroke-width="1.2" opacity="0.4"/>
  <path d="M72 576.4H1080" fill="none" stroke="#3f9cb4" stroke-width="3" stroke-linecap="round"/>
  <line x1="0" y1="672.4" x2="1200" y2="672.4" stroke="#e7edef" stroke-width="2" opacity="0.8"/>
  <line x1="-60" y1="732.4" x2="0" y2="672.4" stroke="rgba(231,237,239,0.22)" stroke-width="1"/>
  <line x1="-34" y1="732.4" x2="26" y2="672.4" stroke="rgba(231,237,239,0.22)" stroke-width="1"/>
  <line x1="-8" y1="732.4" x2="52" y2="672.4" stroke="rgba(231,237,239,0.22)" stroke-width="1"/>
  <line x1="18" y1="732.4" x2="78" y2="672.4" stroke="rgba(231,237,239,0.22)" stroke-width="1"/>
  <line x1="44" y1="732.4" x2="104" y2="672.4" stroke="rgba(231,237,239,0.22)" stroke-width="1"/>
  <line x1="70" y1="732.4" x2="130" y2="672.4" stroke="rgba(231,237,239,0.22)" stroke-width="1"/>
  <line x1="96" y1="732.4" x2="156" y2="672.4" stroke="rgba(231,237,239,0.22)" stroke-width="1"/>
  <line x1="122" y1="732.4" x2="182" y2="672.4" stroke="rgba(231,237,239,0.22)" stroke-width="1"/>
  <line x1="148" y1="732.4" x2="208" y2="672.4" stroke="rgba(231,237,239,0.22)" stroke-width="1"/>
  <line x1="174" y1="732.4" x2="234" y2="672.4" stroke="rgba(231,237,239,0.22)" stroke-width="1"/>
  <line x1="200" y1="732.4" x2="260" y2="672.4" stroke="rgba(231,237,239,0.22)" stroke-width="1"/>
  <line x1="226" y1="732.4" x2="286" y2="672.4" stroke="rgba(231,237,239,0.22)" stroke-width="1"/>
  <line x1="252" y1="732.4" x2="312" y2="672.4" stroke="rgba(231,237,239,0.22)" stroke-width="1"/>
  <line x1="278" y1="732.4" x2="338" y2="672.4" stroke="rgba(231,237,239,0.22)" stroke-width="1"/>
  <line x1="304" y1="732.4" x2="364" y2="672.4" stroke="rgba(231,237,239,0.22)" stroke-width="1"/>
  <line x1="330" y1="732.4" x2="390" y2="672.4" stroke="rgba(231,237,239,0.22)" stroke-width="1"/>
  <line x1="356" y1="732.4" x2="416" y2="672.4" stroke="rgba(231,237,239,0.22)" stroke-width="1"/>
  <line x1="382" y1="732.4" x2="442" y2="672.4" stroke="rgba(231,237,239,0.22)" stroke-width="1"/>
  <line x1="408" y1="732.4" x2="468" y2="672.4" stroke="rgba(231,237,239,0.22)" stroke-width="1"/>
  <line x1="434" y1="732.4" x2="494" y2="672.4" stroke="rgba(231,237,239,0.22)" stroke-width="1"/>
  <line x1="460" y1="732.4" x2="520" y2="672.4" stroke="rgba(231,237,239,0.22)" stroke-width="1"/>
  <line x1="486" y1="732.4" x2="546" y2="672.4" stroke="rgba(231,237,239,0.22)" stroke-width="1"/>
  <line x1="512" y1="732.4" x2="572" y2="672.4" stroke="rgba(231,237,239,0.22)" stroke-width="1"/>
  <line x1="538" y1="732.4" x2="598" y2="672.4" stroke="rgba(231,237,239,0.22)" stroke-width="1"/>
  <line x1="564" y1="732.4" x2="624" y2="672.4" stroke="rgba(231,237,239,0.22)" stroke-width="1"/>
  <line x1="590" y1="732.4" x2="650" y2="672.4" stroke="rgba(231,237,239,0.22)" stroke-width="1"/>
  <line x1="616" y1="732.4" x2="676" y2="672.4" stroke="rgba(231,237,239,0.22)" stroke-width="1"/>
  <line x1="642" y1="732.4" x2="702" y2="672.4" stroke="rgba(231,237,239,0.22)" stroke-width="1"/>
  <line x1="668" y1="732.4" x2="728" y2="672.4" stroke="rgba(231,237,239,0.22)" stroke-width="1"/>
  <line x1="694" y1="732.4" x2="754" y2="672.4" stroke="rgba(231,237,239,0.22)" stroke-width="1"/>
  <line x1="720" y1="732.4" x2="780" y2="672.4" stroke="rgba(231,237,239,0.22)" stroke-width="1"/>
  <line x1="746" y1="732.4" x2="806" y2="672.4" stroke="rgba(231,237,239,0.22)" stroke-width="1"/>
  <line x1="772" y1="732.4" x2="832" y2="672.4" stroke="rgba(231,237,239,0.22)" stroke-width="1"/>
  <line x1="798" y1="732.4" x2="858" y2="672.4" stroke="rgba(231,237,239,0.22)" stroke-width="1"/>
  <line x1="824" y1="732.4" x2="884" y2="672.4" stroke="rgba(231,237,239,0.22)" stroke-width="1"/>
  <line x1="850" y1="732.4" x2="910" y2="672.4" stroke="rgba(231,237,239,0.22)" stroke-width="1"/>
  <line x1="876" y1="732.4" x2="936" y2="672.4" stroke="rgba(231,237,239,0.22)" stroke-width="1"/>
  <line x1="902" y1="732.4" x2="962" y2="672.4" stroke="rgba(231,237,239,0.22)" stroke-width="1"/>
  <line x1="928" y1="732.4" x2="988" y2="672.4" stroke="rgba(231,237,239,0.22)" stroke-width="1"/>
  <line x1="954" y1="732.4" x2="1014" y2="672.4" stroke="rgba(231,237,239,0.22)" stroke-width="1"/>
  <line x1="980" y1="732.4" x2="1040" y2="672.4" stroke="rgba(231,237,239,0.22)" stroke-width="1"/>
  <line x1="1006" y1="732.4" x2="1066" y2="672.4" stroke="rgba(231,237,239,0.22)" stroke-width="1"/>
  <line x1="1032" y1="732.4" x2="1092" y2="672.4" stroke="rgba(231,237,239,0.22)" stroke-width="1"/>
  <line x1="1058" y1="732.4" x2="1118" y2="672.4" stroke="rgba(231,237,239,0.22)" stroke-width="1"/>
  <line x1="1084" y1="732.4" x2="1144" y2="672.4" stroke="rgba(231,237,239,0.22)" stroke-width="1"/>
  <line x1="1110" y1="732.4" x2="1170" y2="672.4" stroke="rgba(231,237,239,0.22)" stroke-width="1"/>
  <line x1="1136" y1="732.4" x2="1196" y2="672.4" stroke="rgba(231,237,239,0.22)" stroke-width="1"/>
  <line x1="1162" y1="732.4" x2="1222" y2="672.4" stroke="rgba(231,237,239,0.22)" stroke-width="1"/>
  <line x1="1188" y1="732.4" x2="1248" y2="672.4" stroke="rgba(231,237,239,0.22)" stroke-width="1"/>
</svg>
